<?xml version="1.0" standalone="no"?>
<!DOCTYPE svg PUBLIC "-//W3C//DTD SVG 20010904//EN"
 "http://www.w3.org/TR/2001/REC-SVG-20010904/DTD/svg10.dtd">
<svg version="1.0" xmlns="http://www.w3.org/2000/svg"
 width="16.000000pt" height="16.000000pt" viewBox="0 0 16.000000 16.000000"
 preserveAspectRatio="xMidYMid meet">
<metadata>
Created by potrace 1.11, written by Peter Selinger 2001-2013
</metadata>
<g transform="translate(0.000000,16.000000) scale(0.001022,-0.001022)"
fill="#000000" stroke="none">
<path d="M6997 14369 c-21 -5 -48 -14 -59 -20 -11 -6 -55 -15 -97 -19 -102
-11 -152 -25 -164 -46 -21 -37 -60 -64 -93 -64 -24 0 -34 -5 -34 -15 0 -22
-25 -29 -59 -17 -23 8 -29 8 -25 -2 11 -29 -121 -95 -166 -83 -24 6 -76 -17
-84 -38 -3 -8 -20 -21 -38 -30 -18 -9 -54 -27 -81 -40 -26 -14 -62 -27 -80
-29 -37 -5 -117 -35 -117 -45 0 -8 -62 -36 -73 -33 -4 1 -26 4 -48 5 l-41 4 4
-36 c3 -20 8 -44 12 -53 7 -15 3 -18 -18 -18 -29 0 -33 -11 -11 -30 21 -18 -1
-43 -31 -36 -13 4 -27 0 -34 -9 -7 -8 -26 -15 -42 -15 -27 0 -78 -40 -78 -61
0 -5 -5 -9 -12 -9 -6 0 -26 -11 -43 -25 -29 -21 -34 -32 -44 -102 -6 -42 -15
-80 -19 -83 -4 -3 -13 -13 -21 -23 -12 -15 -12 -17 2 -12 19 8 34 -15 16 -26
-11 -6 -9 -12 9 -27 16 -14 22 -31 22 -58 0 -29 -3 -35 -12 -26 -18 18 -25 15
-32 -13 -4 -14 -13 -25 -22 -25 -20 0 -82 -34 -115 -62 -14 -13 -45 -51 -68
-85 -23 -35 -48 -63 -56 -63 -8 0 -15 -6 -15 -13 0 -17 -57 -50 -71 -42 -14 9
-49 -24 -49 -45 0 -10 -15 -25 -35 -34 -19 -9 -35 -21 -35 -27 0 -5 -19 -37
-43 -72 -24 -34 -46 -70 -50 -79 -12 -34 8 -18 38 30 40 64 105 133 118 125 5
-3 15 1 21 9 15 21 48 30 66 17 13 -8 10 -14 -16 -37 -37 -32 -54 -62 -54 -94
0 -14 -9 -34 -20 -46 -11 -12 -20 -25 -20 -31 0 -5 -7 -11 -15 -15 -8 -3 -15
-14 -15 -25 0 -11 -5 -23 -11 -26 -6 -4 -8 -13 -5 -20 3 -8 -1 -19 -9 -25 -7
-6 -16 -22 -19 -35 -4 -14 -17 -41 -31 -61 -67 -98 -87 -174 -86 -317 0 -10
-6 -16 -12 -14 -7 2 -11 12 -10 23 2 10 -2 26 -7 34 -9 13 -11 13 -20 0 -16
-25 -11 -59 11 -71 23 -12 23 -4 2 -269 -3 -41 -5 -111 -5 -154 1 -45 -3 -85
-9 -92 -6 -8 -8 -21 -5 -30 4 -9 2 -44 -4 -78 -18 -103 -19 -108 -36 -102 -14
5 -15 -5 -9 -86 4 -51 13 -115 20 -142 13 -51 6 -158 -17 -241 -18 -66 -12
-230 11 -327 12 -47 24 -107 27 -132 4 -25 9 -44 13 -43 3 1 7 -1 9 -6 1 -4 0
-6 -1 -4 -10 6 -37 -28 -37 -47 1 -21 1 -21 20 3 l20 23 0 -40 c0 -36 2 -39
25 -34 15 2 25 0 25 -7 0 -24 -31 -71 -48 -72 -9 -1 -25 -2 -36 -3 -17 -1 -18
-11 -17 -126 1 -118 5 -160 17 -220 6 -25 6 -25 21 -5 14 19 15 18 8 -12 -4
-22 -2 -34 8 -40 8 -4 17 -17 19 -28 3 -17 7 -15 28 17 14 20 34 38 45 40 12
2 21 12 23 24 2 15 8 20 21 17 9 -2 23 3 30 11 8 9 21 16 31 16 13 0 16 -6 12
-25 -2 -14 -7 -23 -11 -21 -9 6 -8 -40 2 -50 4 -4 7 -25 7 -46 0 -21 5 -38 11
-38 6 0 10 21 9 53 -2 76 -2 80 15 73 12 -4 15 5 16 52 2 70 4 91 13 119 11
34 26 217 26 308 -1 131 16 225 47 257 18 19 27 40 29 73 6 68 36 119 82 136
14 5 22 17 22 32 0 13 6 32 14 42 10 15 11 23 2 38 -9 16 -5 24 32 55 43 37
52 57 30 64 -15 5 21 57 40 58 7 0 15 8 19 18 3 9 14 29 24 43 10 14 16 29 12
33 -3 3 1 6 10 6 10 0 17 5 17 10 0 19 -35 10 -59 -15 -12 -14 -27 -22 -32
-19 -5 3 -2 12 7 21 11 11 14 26 10 47 -4 17 -8 40 -10 51 -2 13 11 35 36 62
23 23 37 46 33 53 -9 14 22 79 41 87 8 3 21 18 29 34 13 23 25 30 75 40 65 13
70 16 79 63 5 22 13 32 29 34 12 2 22 9 22 15 0 18 70 70 111 83 10 4 16 17
17 35 1 36 18 59 43 59 12 0 19 7 19 18 0 24 84 94 104 86 12 -4 16 0 16 15 0
12 6 21 15 21 8 0 15 5 15 10 0 6 7 10 15 10 9 0 20 11 25 24 10 26 45 51 59
42 4 -3 21 8 37 24 16 16 46 35 67 40 20 6 37 15 37 20 0 6 9 10 20 10 11 0
20 5 20 10 0 6 11 10 24 10 14 0 28 5 31 10 4 6 21 17 38 25 18 8 43 22 57 32
13 10 21 12 16 6 -5 -9 -1 -13 13 -13 11 0 23 5 27 11 3 6 19 8 38 5 43 -8 80
17 72 50 -5 20 -3 24 18 24 14 0 27 -4 31 -10 6 -10 55 7 67 24 11 17 -4 36
-35 44 -45 12 -46 32 -1 30 25 -1 41 4 50 17 12 16 18 16 56 6 106 -30 118
-31 139 -19 13 9 19 21 16 35 -2 12 -1 27 4 34 11 18 98 -29 110 -60 5 -13 20
-32 33 -42 16 -13 22 -26 19 -39 -6 -21 0 -23 32 -11 11 5 20 14 20 22 0 8 9
14 20 14 16 0 20 -6 18 -28 -1 -15 2 -25 8 -22 5 4 23 -8 40 -24 30 -30 31
-31 58 -15 26 15 30 15 55 -1 15 -10 46 -20 69 -22 23 -2 46 -8 51 -13 16 -16
38 -12 62 11 22 20 22 20 65 1 24 -11 60 -25 79 -32 19 -6 52 -21 72 -32 46
-23 69 -29 131 -32 48 -2 105 -33 99 -56 -1 -6 11 -16 27 -21 17 -6 33 -18 36
-27 3 -10 16 -30 30 -46 19 -24 26 -27 38 -18 7 7 17 9 20 5 4 -3 7 1 7 10 0
10 5 17 10 17 6 0 10 -6 9 -12 -4 -33 2 -40 26 -35 24 4 25 3 10 -13 -15 -17
-15 -19 1 -28 9 -5 24 -7 34 -5 10 3 29 -9 48 -31 17 -20 35 -36 40 -36 4 0
13 -15 20 -34 7 -18 26 -50 44 -70 43 -50 57 -81 47 -97 -13 -20 -11 -29 6
-29 8 0 15 -4 15 -10 0 -5 6 -7 14 -4 20 8 49 -36 35 -53 -8 -9 -7 -14 4 -19
9 -3 21 -21 27 -40 7 -19 18 -34 27 -34 8 0 17 -9 20 -21 4 -13 12 -19 23 -16
13 3 16 -1 12 -19 -2 -13 -1 -32 3 -41 5 -10 7 -21 7 -25 -1 -5 2 -8 6 -8 13
0 39 -52 46 -92 4 -22 15 -42 26 -48 24 -13 26 -36 5 -56 -8 -9 -15 -25 -15
-36 0 -26 25 -79 50 -106 11 -12 20 -26 20 -32 0 -11 10 -24 43 -61 10 -12 16
-27 13 -35 -3 -9 -2 -23 3 -32 16 -30 1 -72 -28 -78 -14 -3 -39 -12 -56 -19
-16 -8 -46 -18 -65 -21 -34 -5 -70 -18 -100 -35 -68 -37 -90 -48 -90 -42 0 3
-8 0 -17 -8 -29 -23 -57 -36 -93 -44 -19 -4 -44 -13 -54 -21 -11 -7 -31 -11
-47 -7 -18 3 -29 1 -29 -6 0 -6 -11 -11 -25 -11 -14 0 -28 -7 -31 -15 -4 -8
-11 -15 -18 -15 -13 0 -66 -54 -66 -68 0 -5 -10 -22 -22 -37 -15 -20 -18 -30
-10 -33 15 -5 15 -13 0 -49 -6 -15 -10 -36 -9 -45 1 -10 -2 -18 -7 -18 -6 0
-12 -6 -15 -13 -6 -17 107 -17 125 1 6 6 21 12 33 12 11 0 26 9 33 20 9 15 19
19 36 14 14 -3 49 4 87 19 35 13 91 30 123 37 33 7 80 21 105 32 66 29 120 39
254 43 104 4 121 2 150 -15 19 -12 50 -20 77 -20 25 0 54 -6 65 -14 11 -7 31
-16 45 -19 15 -4 30 -18 38 -37 8 -16 20 -30 28 -30 8 0 14 -10 14 -22 0 -12
13 -36 30 -53 l30 -31 -30 -18 c-27 -15 -31 -16 -36 -2 -7 18 -39 22 -49 6 -3
-5 -15 -10 -25 -10 -10 0 -22 -9 -25 -20 -3 -11 -9 -20 -13 -21 -8 -1 -82 -6
-179 -13 -67 -4 -72 -3 -75 16 -4 29 -28 35 -35 9 -5 -19 -43 -31 -43 -13 0 4
-4 13 -9 21 -8 12 -12 12 -26 -2 -20 -21 -39 -22 -32 -2 10 26 -11 26 -31 0
-28 -35 -84 -35 -100 0 -15 32 -30 32 -43 -2 -14 -39 -38 -52 -90 -53 -29 0
-49 -5 -52 -13 -3 -7 -23 -19 -45 -26 -23 -8 -43 -20 -46 -27 -3 -7 -21 -16
-40 -20 -22 -4 -36 -12 -36 -21 0 -9 -6 -13 -15 -9 -18 7 -144 -157 -187 -244
-46 -90 -31 -162 26 -125 13 9 44 18 68 21 24 2 61 7 83 10 22 4 61 7 88 8 26
0 47 3 47 5 0 10 -45 41 -61 41 -10 0 -35 12 -56 26 -40 27 -43 42 -22 111 11
34 49 65 67 54 6 -4 27 -39 47 -78 42 -85 109 -149 164 -159 20 -3 46 -12 58
-20 28 -18 48 -18 65 0 8 7 29 17 46 21 18 3 32 11 32 16 0 5 -12 7 -27 3 -28
-5 -28 -5 -8 13 50 47 96 145 98 208 2 42 6 55 19 58 11 3 20 -3 24 -17 8 -28
34 -57 45 -50 8 5 13 -20 7 -29 -2 -2 3 -11 10 -19 9 -11 10 -23 3 -41 -12
-32 -90 -109 -102 -101 -5 3 -9 -2 -9 -11 0 -13 -6 -16 -25 -11 -27 7 -31 -3
-15 -35 8 -13 21 -19 46 -19 20 0 70 -12 112 -26 67 -23 96 -27 225 -29 92 -2
152 -7 161 -14 14 -11 65 -9 99 4 14 6 15 10 5 22 -10 12 -9 18 5 28 9 7 17
17 17 23 0 6 14 19 32 28 29 15 32 15 43 0 7 -9 17 -16 22 -16 24 0 36 -30 24
-56 -10 -22 -9 -26 8 -31 20 -5 36 -58 26 -86 -4 -8 -2 -18 4 -22 6 -3 11 -15
11 -26 0 -10 4 -19 9 -19 11 0 41 -56 41 -77 0 -7 5 -13 10 -13 6 0 10 -10 10
-21 0 -23 37 -89 49 -89 12 0 19 -115 12 -193 -7 -70 0 -97 24 -97 19 0 19 -9
-1 -32 -14 -14 -14 -20 -4 -33 12 -15 12 -29 -6 -195 -3 -30 -10 -59 -14 -65
-9 -12 -32 -83 -36 -110 -2 -11 -7 -42 -13 -70 -15 -74 -14 -100 2 -86 17 14
37 -5 37 -35 0 -33 -61 -215 -82 -246 -14 -20 -18 -45 -18 -107 0 -84 -18
-156 -51 -203 -11 -14 -19 -35 -19 -46 0 -12 -4 -23 -9 -26 -8 -5 -23 -55 -25
-83 -1 -6 -5 -15 -9 -19 -10 -10 -9 -46 2 -40 5 3 19 32 31 63 13 32 31 67 42
79 10 12 18 35 18 56 0 39 46 132 61 122 5 -3 9 2 9 11 0 8 12 33 26 54 14 22
24 45 23 53 -2 7 5 40 15 73 42 143 61 195 73 195 26 0 26 -1 -22 -171 -8 -26
-10 -60 -6 -80 l7 -33 13 32 c7 17 11 39 7 47 -3 8 3 31 14 49 10 19 22 52 26
73 12 70 31 93 75 93 44 0 75 39 93 118 18 81 20 122 6 122 -26 0 10 76 60
125 11 12 20 26 20 33 0 7 9 22 19 33 23 25 33 74 32 155 -1 81 19 102 55 58
48 -57 54 -77 44 -140 -8 -48 -7 -60 5 -67 27 -15 17 -167 -19 -302 -8 -27
-22 -84 -32 -125 -16 -71 -31 -112 -75 -206 -10 -23 -19 -46 -19 -53 0 -20
-69 -144 -128 -228 -57 -82 -85 -114 -218 -248 -40 -40 -75 -83 -79 -95 -7
-22 -6 -22 21 -7 55 28 80 38 105 41 13 2 32 7 42 11 27 11 21 -20 -8 -35 -26
-14 -30 -22 -41 -82 -7 -40 4 -49 26 -23 11 13 15 13 22 3 12 -18 40 20 32 44
-3 12 0 18 10 18 8 0 25 18 37 40 12 22 31 42 41 46 11 3 23 17 28 30 13 34
25 30 38 -13 l11 -38 -4 37 c-3 28 1 41 14 50 21 15 42 55 61 117 8 24 21 46
29 49 9 3 19 10 23 16 5 7 13 4 22 -9 15 -19 15 -19 16 11 0 17 4 44 9 60 14
48 29 105 47 183 9 41 39 118 65 170 27 53 52 111 55 129 3 18 10 35 15 38 5
3 9 13 9 23 0 10 7 31 14 47 8 16 20 56 25 89 41 233 52 326 55 451 2 94 8
148 17 165 16 28 13 236 -3 256 -10 13 -8 41 7 76 5 12 3 17 -8 17 -11 0 -18
14 -22 48 -3 26 -10 74 -16 107 -5 33 -11 83 -14 110 -5 70 -14 126 -35 230
-22 111 -34 239 -20 210 8 -16 9 -11 5 20 -2 22 -5 46 -5 53 0 7 -4 11 -9 8
-4 -3 -11 32 -14 77 -3 45 -10 96 -15 112 -19 59 -107 507 -118 595 -4 30 -13
70 -20 88 -7 17 -16 60 -19 95 -6 60 -16 109 -36 172 -5 17 -14 71 -20 120 -6
50 -14 99 -19 110 -17 42 -23 61 -31 105 -24 129 -37 187 -46 205 -17 34 -24
123 -9 137 22 23 26 49 11 78 -8 16 -15 40 -15 53 0 13 -7 32 -15 43 -8 10
-15 28 -15 39 0 25 -35 126 -61 176 -10 21 -19 46 -19 56 0 10 -16 51 -35 90
-19 40 -35 76 -35 80 0 5 -16 32 -35 62 -19 29 -35 57 -35 62 0 5 -14 24 -31
42 -17 17 -42 48 -54 67 -12 19 -30 41 -39 49 -9 7 -16 19 -16 25 0 7 -14 25
-31 42 -48 45 -185 209 -232 278 -44 66 -331 355 -419 422 -54 42 -173 114
-187 114 -4 0 -16 9 -27 21 -10 12 -40 32 -65 44 -25 13 -51 31 -59 40 -7 9
-38 29 -69 44 -31 15 -83 47 -115 69 -33 23 -65 42 -72 42 -22 0 -166 61 -243
103 -47 25 -76 36 -79 29 -4 -14 -52 -16 -52 -3 0 5 -21 17 -47 27 -27 10 -51
22 -54 27 -4 5 -16 6 -27 3 -12 -4 -35 0 -54 10 -28 15 -65 18 -250 18 -120 1
-218 -2 -218 -7 0 -11 -52 3 -71 19 -8 8 -21 14 -27 14 -7 0 -21 5 -32 12 -26
16 -33 7 -20 -27 10 -26 9 -27 -7 -14 -28 22 -41 42 -36 56 11 28 -80 41 -160
22z m-1447 -859 c0 -5 -4 -10 -10 -10 -5 0 -10 5 -10 10 0 6 5 10 10 10 6 0
10 -4 10 -10z m-432 -588 c2 -7 -6 -12 -17 -12 -21 0 -27 11 -14 24 9 9 26 2
31 -12z m212 -1777 c0 -8 -7 -15 -15 -15 -8 0 -15 7 -15 15 0 8 7 15 15 15 8
0 15 -7 15 -15z m3460 -45 c0 -14 -14 -12 -28 2 -19 19 -14 30 8 18 11 -6 20
-15 20 -20z m1423 -490 c3 -11 1 -20 -4 -20 -5 0 -9 9 -9 20 0 11 2 20 4 20 2
0 6 -9 9 -20z m40 -108 c3 7 6 -3 6 -22 0 -19 3 -52 5 -73 2 -20 1 -39 -4 -42
-12 -7 -28 37 -34 93 -4 45 -3 52 8 43 11 -9 15 -9 19 1z m-38 -52 c3 -5 1
-10 -4 -10 -6 0 -11 5 -11 10 0 6 2 10 4 10 3 0 8 -4 11 -10z m91 -155 c6 -45
1 -65 -13 -52 -10 11 -13 97 -3 97 5 0 12 -20 16 -45z m-5476 -59 c-17 -22
-32 -9 -19 16 8 14 14 17 22 9 7 -7 6 -15 -3 -25z m5479 -169 c-5 -25 15 -93
34 -119 15 -20 21 -46 23 -105 1 -43 7 -107 13 -142 13 -82 7 -170 -13 -209
-17 -34 -21 -82 -7 -82 5 0 12 23 16 50 7 48 17 61 30 39 11 -17 15 -582 5
-599 -9 -13 -10 -13 -11 0 -6 116 -12 165 -30 252 -26 120 -30 174 -11 171 8
-2 12 11 12 40 l0 42 -21 -32 c-12 -18 -25 -31 -29 -28 -11 7 -50 128 -50 154
0 11 -4 22 -9 26 -15 9 -45 107 -42 135 2 14 8 28 13 31 6 4 8 14 5 23 -6 15
10 76 20 76 2 0 11 -7 19 -15 29 -29 46 -19 39 23 -4 25 -3 33 3 23 6 -8 15
-10 22 -6 10 6 9 11 -3 20 -20 14 -39 63 -31 77 3 5 -1 15 -11 21 -9 8 -17 27
-17 47 0 19 -5 43 -10 53 -6 12 -5 17 7 17 8 0 15 9 15 21 0 11 5 17 10 14 6
-4 10 -12 9 -18z m-5422 -32 c9 -25 -4 -29 -17 -6 -7 15 -7 21 0 21 6 0 13 -7
17 -15z m-36 -86 c25 -13 16 -29 -17 -29 -17 0 -24 5 -24 20 0 22 12 25 41 9z
m4464 -339 c3 -5 -1 -10 -10 -10 -9 0 -13 5 -10 10 3 6 8 10 10 10 2 0 7 -4
10 -10z m1145 -316 c0 -14 -4 -23 -10 -19 -5 3 -10 15 -10 26 0 10 5 19 10 19
6 0 10 -12 10 -26z m-8 -206 c-9 -9 -12 -7 -12 12 0 19 3 21 12 12 9 -9 9 -15
0 -24z m-391 -70 c19 -39 38 -115 31 -123 -3 -3 -13 -5 -23 -5 -15 0 -17 6
-12 30 5 26 3 30 -16 30 -14 0 -20 -4 -15 -12 4 -7 3 -8 -4 -4 -16 9 -3 36 14
29 16 -6 18 5 4 27 -8 12 -10 12 -10 1 0 -11 -3 -11 -15 -1 -8 7 -15 16 -15
21 0 5 7 9 15 9 8 0 15 7 15 15 0 25 15 17 31 -17z m-255 -543 c10 -8 27 -15
37 -15 9 0 17 -3 17 -6 0 -12 -35 -64 -43 -64 -4 0 -5 5 -2 10 3 6 1 10 -4 10
-6 0 -11 -4 -11 -10 0 -15 -19 -12 -36 4 -16 16 -20 71 -4 61 6 -3 7 1 4 9 -8
20 16 21 42 1z m49 -1105 c-3 -5 -11 -10 -16 -10 -6 0 -7 5 -4 10 3 6 11 10
16 10 6 0 7 -4 4 -10z"/>
<path d="M10315 9711 c-3 -5 -1 -12 5 -16 5 -3 10 1 10 9 0 18 -6 21 -15 7z"/>
<path d="M10310 9666 c0 -8 -5 -16 -11 -18 -15 -5 12 -98 29 -98 10 0 12 11 6
48 -4 26 -8 55 -8 65 0 20 -16 23 -16 3z"/>
<path d="M6330 14220 c-13 -8 -13 -10 2 -10 9 0 20 5 23 10 8 13 -5 13 -25 0z"/>
<path d="M5687 13954 c-13 -13 6 -34 25 -28 12 4 24 0 32 -11 7 -10 18 -16 25
-14 8 3 -3 16 -26 32 -41 29 -46 30 -56 21z"/>
<path d="M5401 13444 c0 -11 3 -14 6 -6 3 7 2 16 -1 19 -3 4 -6 -2 -5 -13z"/>
<path d="M5542 11538 c7 -19 38 -22 38 -4 0 10 -9 16 -21 16 -12 0 -19 -5 -17
-12z"/>
<path d="M8600 11319 c0 -32 99 -166 110 -149 8 12 -8 38 -42 69 -10 8 -18 21
-18 29 0 17 -30 62 -41 62 -5 0 -9 -5 -9 -11z"/>
<path d="M6128 10628 c-2 -15 -11 -24 -26 -26 -13 -2 -21 -9 -19 -15 2 -7 -2
-16 -9 -22 -35 -27 42 -63 135 -65 33 0 34 0 16 20 -17 19 -17 20 1 20 10 0
35 -4 55 -9 35 -8 37 -7 34 15 -2 18 3 24 17 24 17 0 19 4 13 27 -8 33 -3 29
-42 36 -24 5 -35 2 -42 -10 -8 -15 -11 -15 -42 0 -19 8 -46 18 -61 22 -22 6
-27 3 -30 -17z m48 -71 c4 -4 -5 -7 -20 -7 -15 0 -25 4 -22 9 7 10 31 9 42 -2z"/>
<path d="M6366 10621 c-4 -5 -2 -12 3 -15 5 -4 12 -2 15 3 4 5 2 12 -3 15 -5
4 -12 2 -15 -3z"/>
<path d="M6430 10606 c0 -7 9 -16 21 -19 20 -5 20 -5 3 14 -20 23 -24 23 -24
5z"/>
<path d="M6117 10152 c3 -14 -1 -22 -14 -25 -49 -14 -69 -15 -82 -8 -9 6 -22
5 -33 -2 -15 -10 -25 -8 -49 5 -30 18 -30 18 -24 -3 8 -25 -8 -39 -47 -39 -16
0 -28 -4 -28 -10 0 -5 -9 -10 -20 -10 -11 0 -20 -7 -20 -15 0 -9 -17 -19 -46
-26 -32 -8 -44 -16 -40 -26 3 -7 -1 -16 -9 -19 -8 -3 -17 -14 -20 -25 -5 -15
-12 -17 -37 -12 -26 5 -30 4 -25 -10 8 -20 -24 -40 -49 -30 -14 5 -16 3 -9
-13 4 -10 8 -27 9 -37 2 -18 64 -57 91 -57 18 0 20 -21 3 -39 -11 -11 -6 -12
26 -9 32 4 40 1 49 -19 5 -13 15 -23 21 -24 6 0 19 -2 29 -4 23 -4 77 23 84
42 4 9 1 23 -4 33 -20 31 -2 71 59 131 33 33 68 59 77 59 10 0 24 7 31 15 9
11 17 12 31 4 13 -6 25 -6 38 1 54 29 54 -2 0 -32 -40 -23 -40 -23 -37 -73 3
-39 14 -65 45 -110 56 -83 72 -95 136 -102 107 -11 172 38 222 167 16 41 30
77 31 79 2 2 19 -7 38 -19 25 -15 36 -29 36 -45 0 -13 5 -27 10 -30 19 -12 11
-78 -12 -102 -12 -13 -18 -26 -14 -30 9 -9 163 -21 189 -15 27 7 21 53 -13
103 -16 24 -30 49 -30 55 0 6 -11 21 -25 34 -14 13 -25 29 -25 35 0 14 -86
105 -115 122 -92 54 -219 105 -240 96 -7 -2 -20 3 -29 12 -13 14 -19 15 -31 5
-21 -17 -83 -6 -111 21 -22 21 -23 21 -17 1z m613 -421 c0 -15 -19 -23 -38
-16 -14 5 -14 7 -2 15 19 12 40 13 40 1z"/>
<path d="M4911 9787 c-14 -14 -14 -37 0 -37 10 0 39 24 39 33 0 11 -29 14 -39
4z"/>
<path d="M8440 9689 c0 -5 -4 -8 -9 -4 -5 3 -12 1 -16 -5 -3 -5 3 -10 14 -10
12 0 21 7 21 15 0 8 -2 15 -5 15 -3 0 -5 -5 -5 -11z"/>
<path d="M9437 9561 c3 -12 9 -21 14 -21 14 0 11 16 -5 29 -12 10 -13 8 -9 -8z"/>
<path d="M4856 9553 c-4 -10 2 -24 16 -37 21 -19 21 -20 14 -1 -5 11 -8 28 -8
38 1 22 -14 22 -22 0z"/>
<path d="M9485 9560 c3 -5 8 -10 11 -10 2 0 4 5 4 10 0 6 -5 10 -11 10 -5 0
-7 -4 -4 -10z"/>
<path d="M7770 9534 c0 -8 5 -12 10 -9 6 3 10 10 10 16 0 5 -4 9 -10 9 -5 0
-10 -7 -10 -16z"/>
<path d="M4950 9520 c0 -11 5 -20 10 -20 6 0 10 9 10 20 0 11 -4 20 -10 20 -5
0 -10 -9 -10 -20z"/>
<path d="M4930 9434 c0 -17 14 -18 28 -1 8 10 6 13 -9 14 -10 1 -19 -5 -19
-13z"/>
<path d="M7961 8853 c0 -7 -16 -29 -34 -48 -23 -25 -39 -34 -51 -29 -15 6 -15
3 -5 -20 9 -18 9 -29 1 -39 -13 -15 1 -43 17 -33 6 4 11 13 11 21 0 8 5 17 10
20 13 8 42 -14 34 -26 -3 -5 6 -13 21 -19 14 -5 28 -18 32 -27 4 -10 9 -20 12
-23 33 -28 93 -117 111 -165 31 -82 36 -137 16 -189 -16 -43 -81 -106 -108
-106 -8 0 -19 -5 -25 -11 -16 -16 -82 -2 -90 18 -3 8 2 29 11 45 10 16 15 32
11 36 -12 12 -144 3 -173 -11 -15 -7 -34 -12 -42 -11 -15 3 -110 -105 -110
-125 0 -15 33 -14 48 1 7 7 39 13 73 13 55 1 63 -2 80 -26 13 -19 25 -26 39
-22 11 3 20 1 20 -5 0 -15 69 -20 81 -6 6 7 28 15 50 19 77 13 96 30 143 128
41 87 67 187 49 187 -5 0 -14 34 -20 76 -7 46 -19 87 -31 103 -11 15 -25 53
-32 84 -8 39 -19 63 -36 76 -13 10 -24 26 -24 35 0 8 -18 25 -39 36 -22 11
-42 28 -44 37 -3 10 -5 12 -6 6z"/>
<path d="M7797 8752 c-5 -7 27 -52 37 -52 8 0 3 31 -7 48 -9 14 -23 16 -30 4z"/>
<path d="M5060 8555 c-10 -12 -9 -16 3 -21 20 -7 37 3 37 22 0 18 -24 18 -40
-1z"/>
<path d="M5035 8420 c-10 -15 35 -147 56 -166 13 -11 46 -20 97 -24 75 -7 78
-7 105 21 30 31 35 44 12 35 -17 -6 -20 15 -5 30 13 13 3 41 -17 48 -31 12
-53 -4 -53 -38 0 -40 -7 -48 -31 -35 -31 16 -67 99 -36 84 6 -4 3 1 -7 9 -11
9 -14 16 -8 16 7 0 12 5 12 11 0 6 -7 8 -16 5 -9 -4 -23 -1 -30 5 -11 9 -14 8
-14 -5 0 -10 -4 -14 -10 -11 -5 3 -10 2 -10 -4 0 -5 5 -13 10 -16 12 -8 13
-45 1 -45 -9 0 -24 42 -26 69 0 18 -21 26 -30 11z"/>
<path d="M7013 8234 c-20 -17 -21 -21 -7 -39 27 -36 189 -34 202 3 6 20 -45
42 -109 48 -54 5 -68 3 -86 -12z"/>
<path d="M9643 8220 c-6 -15 -7 -26 -1 -29 15 -5 20 5 16 31 l-5 23 -10 -25z"/>
<path d="M9600 7719 c0 -5 5 -7 10 -4 6 3 10 8 10 11 0 2 -4 4 -10 4 -5 0 -10
-5 -10 -11z"/>
<path d="M7625 7648 c-16 -5 -44 -16 -60 -23 -17 -8 -43 -18 -58 -24 -21 -8
-27 -17 -27 -41 0 -27 3 -31 23 -29 23 4 47 -7 47 -20 0 -26 -217 -39 -272
-16 -11 4 -18 3 -18 -4 0 -16 -96 -14 -129 4 -18 9 -30 25 -34 43 -7 33 -29
46 -55 32 -16 -9 -53 -18 -166 -41 -27 -6 -58 -8 -68 -6 -12 3 -18 1 -15 -6 8
-26 111 -50 218 -52 78 -1 113 -6 131 -17 29 -19 144 -38 232 -38 37 0 68 -5
72 -11 4 -7 25 -9 56 -7 27 3 51 1 54 -4 4 -6 17 -8 30 -5 14 2 27 0 30 -5 3
-5 13 -3 22 6 15 12 128 22 215 17 29 -2 22 -70 -12 -118 -16 -23 -27 -44 -23
-47 3 -4 -4 -9 -16 -13 -12 -3 -22 -8 -22 -12 1 -20 23 -30 85 -36 59 -6 73
-4 84 9 9 10 29 16 56 16 29 0 54 8 79 25 20 14 45 25 54 25 10 0 26 11 36 25
11 14 25 24 31 21 7 -2 40 18 75 45 35 27 67 49 72 49 17 0 168 158 168 176
-1 11 -9 29 -19 41 -15 18 -23 20 -52 13 -65 -16 -84 -23 -103 -36 -20 -14
-167 -9 -198 7 -9 5 -36 9 -61 9 -24 0 -47 3 -50 6 -4 4 -21 8 -39 9 -41 4
-134 27 -144 38 -11 10 -194 7 -229 -5z m-22 -155 c-7 -2 -19 -2 -25 0 -7 3
-2 5 12 5 14 0 19 -2 13 -5z m390 -113 c3 -11 2 -20 -2 -20 -10 0 -31 37 -24
44 9 9 20 -2 26 -24z m32 -50 c-3 -5 -13 -10 -21 -10 -8 0 -14 5 -14 10 0 6 9
10 21 10 11 0 17 -4 14 -10z"/>
<path d="M6607 7564 c-12 -12 4 -24 30 -24 21 0 24 2 13 15 -13 16 -32 20 -43
9z"/>
<path d="M7354 7529 c-18 -20 -18 -20 11 -13 37 8 39 10 30 23 -9 16 -20 13
-41 -10z"/>
<path d="M6698 7519 c18 -12 39 -18 49 -15 24 9 5 22 -42 29 l-40 6 33 -20z"/>
<path d="M9551 7344 c0 -11 3 -14 6 -6 3 7 2 16 -1 19 -3 4 -6 -2 -5 -13z"/>
<path d="M9756 7301 c-4 -7 -5 -15 -2 -18 9 -9 19 4 14 18 -4 11 -6 11 -12 0z"/>
<path d="M9717 7240 c-3 -11 -1 -20 4 -20 5 0 9 2 9 4 0 2 3 11 6 20 3 9 2 16
-4 16 -5 0 -12 -9 -15 -20z"/>
<path d="M7705 7230 c-3 -5 -3 -15 1 -21 6 -11 23 6 24 24 0 10 -18 9 -25 -3z"/>
<path d="M8957 6789 c-18 -9 -47 -24 -64 -33 -18 -8 -33 -19 -33 -23 0 -5 -20
-22 -45 -37 -25 -16 -45 -33 -45 -37 0 -10 -114 -69 -133 -69 -7 0 -23 -9 -35
-20 -12 -11 -26 -20 -32 -20 -5 0 -10 -4 -10 -9 0 -4 -11 -6 -25 -3 -14 2 -25
0 -25 -6 0 -5 -11 -13 -25 -16 -14 -4 -25 -11 -25 -18 0 -14 -31 -37 -51 -38
-9 0 -19 -7 -22 -15 -4 -8 -25 -26 -49 -41 -24 -15 -47 -33 -51 -40 -4 -8 -16
-14 -26 -14 -21 0 -113 -39 -94 -40 7 0 10 -6 7 -14 -7 -18 40 -51 57 -40 9 5
10 1 7 -14 -5 -17 -2 -22 13 -22 10 0 19 7 19 15 0 9 9 15 25 15 18 0 26 7 31
24 4 19 14 25 50 31 35 5 44 10 44 26 0 23 22 25 40 4 14 -16 35 -21 25 -5 -6
9 31 23 51 19 23 -4 36 2 30 16 -3 9 0 15 8 15 7 0 19 -7 26 -15 7 -8 18 -15
26 -15 7 0 16 -5 20 -11 4 -8 -3 -9 -22 -5 -32 7 -70 -9 -44 -18 65 -22 94
-24 132 -12 l39 14 6 -29 c4 -24 11 -29 34 -29 16 0 37 9 48 21 20 22 41 19
41 -7 0 -8 10 -14 25 -14 14 0 25 -4 25 -10 0 -5 -9 -10 -20 -10 -40 0 -56
-19 -52 -63 5 -48 18 -69 28 -44 3 9 12 17 18 17 9 0 12 -17 11 -52 -1 -29 3
-61 7 -71 7 -13 4 -26 -7 -43 -9 -13 -13 -29 -10 -34 3 -6 3 -16 -1 -22 -5 -7
-7 -27 -5 -45 4 -45 -6 -70 -29 -76 -28 -7 -25 -23 9 -40 21 -11 32 -12 40 -4
8 8 11 7 11 -2 0 -8 7 -10 20 -6 11 4 20 2 20 -4 0 -6 -16 -11 -36 -11 -24 0
-34 -4 -31 -12 2 -7 16 -12 31 -11 25 2 35 -10 17 -21 -5 -3 -12 -18 -16 -33
-3 -15 -10 -30 -13 -33 -4 -3 -12 -14 -18 -25 -6 -11 -17 -20 -25 -20 -8 0
-16 -11 -17 -24 -3 -19 0 -22 13 -17 9 3 27 9 40 12 20 5 24 13 27 47 3 39 5
42 30 39 29 -3 44 21 32 52 -5 13 0 16 27 16 26 0 30 3 21 12 -15 15 -16 92
-2 119 20 37 33 21 27 -33 -6 -44 -2 -59 20 -100 20 -36 32 -48 50 -48 26 0
31 -15 7 -24 -12 -5 -14 -10 -5 -20 14 -17 4 -26 -31 -26 -31 0 -36 -11 -13
-30 9 -8 28 -10 50 -6 34 7 35 6 35 -24 0 -27 -3 -30 -32 -31 -31 -2 -31 -2
-5 -6 34 -5 36 -23 3 -23 -14 0 -27 -4 -30 -9 -3 -4 -19 -11 -36 -15 -17 -3
-50 -18 -73 -33 -23 -16 -51 -33 -62 -39 -23 -13 -74 -94 -69 -109 2 -5 0 -17
-6 -25 -8 -12 -14 -12 -45 3 -20 10 -33 12 -29 6 4 -7 0 -17 -9 -24 -9 -7 -19
-33 -22 -64 -5 -46 -3 -56 14 -73 12 -10 21 -31 21 -48 0 -16 4 -32 10 -35 5
-3 7 -19 4 -34 -7 -32 13 -52 27 -30 16 24 26 -7 22 -64 -7 -108 -30 -224 -65
-332 -5 -16 -16 -68 -24 -115 -32 -187 -52 -256 -134 -480 -17 -47 -40 -121
-50 -165 -30 -128 -41 -169 -51 -190 -5 -11 -29 -81 -53 -155 -24 -74 -58
-173 -75 -220 -17 -47 -31 -91 -31 -98 0 -8 -6 -28 -14 -45 -7 -18 -29 -84
-49 -147 -85 -274 -209 -662 -228 -715 -6 -16 -33 -95 -59 -175 -89 -265 -121
-355 -141 -388 -10 -18 -19 -40 -19 -48 0 -17 -5 -17 -30 -4 -11 6 -17 16 -14
24 3 8 -4 16 -16 19 -12 3 -19 10 -16 15 3 5 -5 23 -18 41 -13 17 -33 60 -45
94 -12 34 -28 76 -36 92 -50 106 -162 384 -170 423 -4 20 -50 128 -67 157 -6
11 -15 33 -19 50 -4 16 -26 77 -49 135 -23 58 -43 112 -45 120 -2 8 -15 47
-30 85 -14 39 -33 93 -42 120 -8 28 -23 68 -33 90 -10 22 -23 56 -30 75 -7 19
-28 68 -46 108 -19 41 -34 77 -34 80 0 4 -18 45 -41 92 -23 47 -45 94 -50 105
-14 35 -51 118 -75 173 -13 29 -24 57 -24 63 0 6 -9 31 -19 57 -11 26 -29 74
-41 107 -32 85 -36 95 -58 145 -24 53 -53 137 -50 148 0 4 -1 14 -4 22 -3 8
-11 41 -18 72 -7 31 -18 56 -23 55 -6 -1 -14 13 -18 31 -4 19 -12 39 -18 45
-6 6 -11 19 -11 28 0 9 -6 19 -14 22 -7 3 -16 18 -19 34 -3 16 -20 44 -37 63
-20 22 -29 39 -25 51 5 15 3 17 -11 12 -14 -5 -16 -3 -10 13 9 22 17 59 19 92
1 12 5 22 10 22 4 0 5 11 1 25 -5 20 -3 24 10 19 21 -8 33 23 18 47 -7 10 -12
27 -12 37 0 10 -17 32 -37 50 -82 69 -125 102 -134 102 -5 0 -9 29 -9 65 l0
64 -45 31 c-25 17 -79 40 -123 51 -189 49 -374 189 -420 319 -75 209 -63 288
67 425 69 73 106 134 135 223 24 72 17 85 -37 77 -185 -28 -238 -52 -311 -143
-31 -40 -72 -78 -91 -88 -40 -19 -114 -92 -156 -155 l-29 -44 -87 -2 c-47 -2
-103 -8 -122 -13 -20 -6 -78 -22 -129 -36 -52 -13 -118 -38 -147 -54 -30 -17
-68 -30 -85 -30 -39 0 -152 -44 -205 -80 -22 -15 -63 -48 -91 -73 -51 -46 -90
-63 -259 -113 -68 -20 -81 -21 -88 -9 -19 34 -116 10 -287 -72 -114 -54 -164
-73 -199 -73 -14 -1 -42 -7 -61 -14 -54 -21 -258 -92 -317 -110 -29 -9 -88
-34 -130 -56 -43 -22 -115 -58 -160 -80 -45 -22 -83 -44 -85 -48 -2 -4 -26
-15 -54 -25 -38 -13 -57 -15 -76 -8 -33 13 -71 -10 -51 -30 10 -10 4 -17 -29
-34 -36 -18 -51 -20 -93 -13 -49 8 -50 8 -82 -29 -17 -20 -34 -49 -37 -64 -4
-22 -22 -34 -111 -78 -58 -28 -109 -51 -112 -51 -20 0 -85 -66 -148 -150 -68
-93 -93 -118 -246 -251 -35 -31 -85 -87 -110 -125 -125 -187 -155 -233 -236
-363 -29 -45 -93 -187 -93 -205 -1 -6 -9 -29 -20 -51 -11 -22 -19 -43 -20 -48
0 -4 -9 -26 -19 -50 -11 -23 -47 -109 -82 -192 -34 -82 -65 -154 -69 -160 -9
-12 -62 -182 -96 -309 -18 -68 -24 -116 -24 -193 0 -67 -7 -137 -22 -204 l-21
-102 22 -40 c23 -40 23 -41 12 -211 -6 -94 -16 -265 -21 -381 -6 -115 -17
-259 -24 -320 -8 -60 -17 -176 -21 -257 -3 -81 -10 -162 -16 -180 -5 -18 -9
-65 -9 -104 0 -88 -34 -369 -56 -461 -9 -37 -22 -102 -29 -143 l-12 -75 29
-43 c17 -24 37 -46 46 -48 10 -3 25 -10 34 -15 11 -5 2596 -9 6652 -9 l6634 0
6 35 c4 20 4 40 1 45 -9 14 -24 371 -30 695 -6 328 -12 454 -25 542 -5 38 -12
131 -14 208 -9 255 -25 587 -30 634 -3 25 -10 87 -16 136 -6 50 -15 115 -21
145 -5 30 -17 93 -24 140 -15 92 -60 296 -75 346 -6 17 -10 40 -10 52 0 12
-14 66 -31 120 -16 53 -48 156 -71 227 -46 149 -108 315 -148 395 -37 76 -168
273 -239 360 -20 24 -40 51 -46 60 -5 9 -23 39 -40 66 -44 71 -104 128 -195
180 -45 26 -83 51 -87 57 -3 5 8 20 26 34 17 13 31 33 31 43 0 19 -53 70 -73
70 -18 0 -101 42 -124 63 -13 11 -23 26 -23 34 0 15 -41 27 -68 19 -19 -6
-118 40 -157 73 -11 10 -38 28 -60 41 -22 13 -62 37 -90 54 -27 18 -61 37 -75
44 -14 7 -63 40 -110 74 -79 56 -227 138 -445 246 -49 24 -132 54 -183 67 -51
13 -100 29 -109 36 -8 8 -43 21 -77 31 -34 9 -95 26 -136 38 -41 12 -100 26
-130 30 -30 5 -80 15 -110 23 -30 8 -77 20 -104 26 -26 7 -67 20 -90 30 -22
10 -57 24 -77 30 -20 6 -74 28 -120 48 -46 19 -111 46 -144 59 -33 14 -77 34
-98 45 -24 12 -65 22 -110 26 -40 3 -97 14 -127 25 -30 10 -81 28 -112 38 -31
10 -92 43 -136 73 -79 54 -171 87 -243 87 -55 0 -121 42 -220 140 -53 52 -109
103 -125 112 -29 17 -110 83 -169 136 -75 68 -71 67 -184 73 -58 3 -117 9
-131 13 -48 12 -55 -6 -26 -64 25 -50 36 -83 15 -47 -5 9 -17 17 -25 17 -8 0
-13 4 -10 9 3 5 -1 14 -9 21 -8 7 -12 17 -9 22 4 6 -2 5 -14 -1 -11 -6 -22
-16 -25 -23 -2 -7 -4 0 -4 16 0 19 2 24 8 15 7 -11 9 -10 9 4 0 9 -5 17 -11
17 -8 0 -8 5 1 15 10 12 16 13 26 4 19 -16 17 1 -2 22 -9 10 -20 35 -25 56 -5
21 -15 67 -23 103 -12 55 -25 148 -26 186 0 16 -27 13 -63 -7z m-131 -445 c-3
-9 -6 -22 -6 -30 0 -8 -7 -14 -15 -14 -18 0 -21 46 -2 53 23 10 29 7 23 -9z
m372 -73 c3 -8 -1 -12 -9 -9 -7 2 -15 10 -17 17 -3 8 1 12 9 9 7 -2 15 -10 17
-17z m20 -41 c3 -12 2 -12 -8 -3 -7 6 -19 9 -28 6 -10 -4 -13 -2 -8 6 10 16
38 10 44 -9z m-165 -243 c38 -34 49 -67 22 -67 -8 0 -15 5 -15 10 0 6 -11 10
-25 10 -17 0 -25 6 -25 18 0 9 -3 27 -6 40 -9 30 4 27 49 -11z m12 -77 c4 -6
-5 -10 -20 -10 -15 0 -24 4 -20 10 3 6 12 10 20 10 8 0 17 -4 20 -10z m69 -71
c-10 -16 -35 27 -27 46 5 15 8 14 20 -9 8 -15 11 -31 7 -37z m-171 29 c9 -33
-2 -65 -23 -71 -10 -3 -21 -2 -24 1 -12 11 -5 61 10 76 21 22 31 20 37 -6z
m67 -2 c0 -7 -7 -19 -15 -26 -12 -10 -15 -9 -15 7 0 11 3 23 7 26 11 12 23 8
23 -7z m200 -356 c0 -5 -7 -10 -15 -10 -8 0 -15 5 -15 10 0 6 7 10 15 10 8 0
15 -4 15 -10z m-393 -306 c-3 -3 -12 -4 -19 -1 -8 3 -5 6 6 6 11 1 17 -2 13
-5z m-4290 -4099 c43 -42 45 -46 38 -86 -10 -60 -32 -108 -71 -152 -65 -77
-128 -96 -190 -58 -39 24 -88 86 -79 100 3 6 8 30 11 53 4 28 17 58 40 87 39
51 63 70 113 87 65 24 90 18 138 -31z m6553 -175 c11 -11 20 -27 20 -37 0 -14
-2 -14 -21 3 -11 10 -25 27 -30 36 -13 25 6 23 31 -2z m-3123 -100 c7 0 13 -4
13 -10 0 -15 -10 -12 -39 13 -15 12 -25 29 -23 36 3 9 10 5 21 -13 8 -14 21
-26 28 -26z m-67 36 c0 -3 -4 -8 -10 -11 -5 -3 -10 -1 -10 4 0 6 5 11 10 11 6
0 10 -2 10 -4z m-12 -159 c5 -29 11 -58 13 -66 2 -8 -3 -16 -11 -18 -10 -2
-23 12 -38 42 -22 46 -27 80 -16 110 11 29 41 -11 52 -68z"/>
<path d="M4430 1010 c-8 -5 -22 -10 -31 -10 -9 0 -33 -7 -53 -15 -33 -14 -35
-17 -24 -40 13 -30 12 -30 63 -5 22 11 48 19 57 20 19 0 38 28 31 48 -6 14
-22 15 -43 2z"/>
<path d="M8080 6268 c0 -4 9 -8 20 -8 11 0 20 4 20 8 0 4 -9 8 -20 8 -11 0
-20 -4 -20 -8z"/>
<path d="M8080 6210 c0 -11 7 -20 15 -20 8 0 19 9 25 20 9 18 8 20 -15 20 -18
0 -25 -5 -25 -20z"/>
<path d="M8840 5680 c0 -6 -4 -8 -10 -5 -16 10 -12 -5 9 -31 11 -14 22 -20 26
-15 3 6 12 8 20 4 18 -6 19 16 2 37 -15 18 -47 25 -47 10z"/>
<path d="M8760 5630 c0 -5 9 -10 20 -10 11 0 20 5 20 10 0 6 -9 10 -20 10 -11
0 -20 -4 -20 -10z"/>
<path d="M9025 5629 c-4 -6 -5 -12 -4 -13 11 -9 90 -13 95 -5 3 5 -7 9 -21 9
-15 0 -35 5 -45 10 -13 7 -21 7 -25 -1z"/>
<path d="M8810 5622 c0 -5 7 -16 16 -23 14 -12 16 -11 13 5 -4 20 -29 35 -29
18z"/>
<path d="M8775 5535 l-30 -13 27 -1 c15 -1 30 -5 33 -11 12 -19 45 -11 45 10
0 11 -4 20 -9 20 -5 0 -15 2 -23 5 -7 2 -26 -2 -43 -10z"/>
<path d="M9101 5529 c8 -8 27 -15 43 -16 36 -1 21 13 -23 22 -30 6 -33 5 -20
-6z"/>
</g>
</svg>
